<svg width="32" height="28" viewBox="0 0 32 28" fill="none" xmlns="http://www.w3.org/2000/svg">
<g id="&#240;&#159;&#166;&#134; icon &#34;heart&#34;">
<path id="Vector" d="M3.79929 3.27199L3.79922 3.27192L3.78952 3.28159C2.39938 4.66765 1.5 6.56922 1.5 8.74487C1.5 10.8914 2.40259 12.787 3.77989 14.1984L3.77982 14.1985L3.78952 14.2081L15.3233 25.7081L16.0294 26.4121L16.7355 25.7081L28.2693 14.2081C29.6594 12.8221 30.5588 10.9205 30.5588 8.74487C30.5588 6.59835 29.6562 4.70273 28.2789 3.29133L28.279 3.29126L28.2693 3.28159C26.8792 1.89554 24.9734 1 22.7941 1C20.6441 1 18.7442 1.89874 17.3287 3.27199L17.3286 3.27192L17.3189 3.28159C16.8163 3.78278 16.3778 4.35136 16.0228 4.97594C15.6717 4.35985 15.2408 3.79478 14.7495 3.29133L14.7496 3.29126L14.7399 3.28159C13.3498 1.89554 11.4439 1 9.26471 1C7.11468 1 5.21483 1.89874 3.79929 3.27199Z" fill="white" stroke="#9F9F9F" stroke-width="2"/>
</g>
</svg>
